<svg viewBox="0 0 330 200" xmlns="http://www.w3.org/2000/svg"><g><g><g><g><g><line x1="40" y1="177" x2="35" y2="177" style="visibility: inherit;" fill="rgb(0, 0, 0)" stroke="rgb(204, 204, 204)" stroke-width="1px"></line><line x1="40" y1="157.33333333333331" x2="35" y2="157.33333333333331" style="visibility: inherit;" fill="rgb(0, 0, 0)" stroke="rgb(204, 204, 204)" stroke-width="1px"></line><line x1="40" y1="137.66666666666666" x2="35" y2="137.66666666666666" style="visibility: inherit;" fill="rgb(0, 0, 0)" stroke="rgb(204, 204, 204)" stroke-width="1px"></line><line x1="40" y1="118.00000000000001" x2="35" y2="118.00000000000001" style="visibility: inherit;" fill="rgb(0, 0, 0)" stroke="rgb(204, 204, 204)" stroke-width="1px"></line><line x1="40" y1="98.33333333333334" x2="35" y2="98.33333333333334" style="visibility: inherit;" fill="rgb(0, 0, 0)" stroke="rgb(204, 204, 204)" stroke-width="1px"></line><line x1="40" y1="78.66666666666666" x2="35" y2="78.66666666666666" style="visibility: inherit;" fill="rgb(0, 0, 0)" stroke="rgb(204, 204, 204)" stroke-width="1px"></line><line x1="40" y1="59.00000000000001" x2="35" y2="59.00000000000001" style="visibility: inherit;" fill="rgb(0, 0, 0)" stroke="rgb(204, 204, 204)" stroke-width="1px"></line><line x1="40" y1="39.33333333333333" x2="35" y2="39.33333333333333" style="visibility: inherit;" fill="rgb(0, 0, 0)" stroke="rgb(204, 204, 204)" stroke-width="1px"></line><line x1="40" y1="19.666666666666675" x2="35" y2="19.666666666666675" style="visibility: inherit;" fill="rgb(0, 0, 0)" stroke="rgb(204, 204, 204)" stroke-width="1px"></line><line x1="40" y1="0" x2="35" y2="0" style="visibility: inherit;" fill="rgb(0, 0, 0)" stroke="rgb(204, 204, 204)" stroke-width="1px"></line></g><g transform="translate(30, 0)"><text x="0" y="177" dx="0em" dy="0.3em" style="text-anchor: end; visibility: hidden; font-family: Roboto, sans-serif; font-size: 12px; font-weight: 200;" fill="rgb(255, 255, 255)" stroke="none" stroke-width="1px">-10</text><text x="0" y="157.33333333333331" dx="0em" dy="0.3em" style="text-anchor: end; visibility: inherit; font-family: Roboto, sans-serif; font-size: 12px; font-weight: 200;" fill="rgb(255, 255, 255)" stroke="none" stroke-width="1px">0</text><text x="0" y="137.66666666666666" dx="0em" dy="0.3em" style="text-anchor: end; visibility: hidden; font-family: Roboto, sans-serif; font-size: 12px; font-weight: 200;" fill="rgb(255, 255, 255)" stroke="none" stroke-width="1px">10</text><text x="0" y="118.00000000000001" dx="0em" dy="0.3em" style="text-anchor: end; visibility: inherit; font-family: Roboto, sans-serif; font-size: 12px; font-weight: 200;" fill="rgb(255, 255, 255)" stroke="none" stroke-width="1px">20</text><text x="0" y="98.33333333333334" dx="0em" dy="0.3em" style="text-anchor: end; visibility: hidden; font-family: Roboto, sans-serif; font-size: 12px; font-weight: 200;" fill="rgb(255, 255, 255)" stroke="none" stroke-width="1px">30</text><text x="0" y="78.66666666666666" dx="0em" dy="0.3em" style="text-anchor: end; visibility: inherit; font-family: Roboto, sans-serif; font-size: 12px; font-weight: 200;" fill="rgb(255, 255, 255)" stroke="none" stroke-width="1px">40</text><text x="0" y="59.00000000000001" dx="0em" dy="0.3em" style="text-anchor: end; visibility: hidden; font-family: Roboto, sans-serif; font-size: 12px; font-weight: 200;" fill="rgb(255, 255, 255)" stroke="none" stroke-width="1px">50</text><text x="0" y="39.33333333333333" dx="0em" dy="0.3em" style="text-anchor: end; visibility: inherit; font-family: Roboto, sans-serif; font-size: 12px; font-weight: 200;" fill="rgb(255, 255, 255)" stroke="none" stroke-width="1px">60</text><text x="0" y="19.666666666666675" dx="0em" dy="0.3em" style="text-anchor: end; visibility: hidden; font-family: Roboto, sans-serif; font-size: 12px; font-weight: 200;" fill="rgb(255, 255, 255)" stroke="none" stroke-width="1px">70</text><text x="0" y="0" dx="0em" dy="0.3em" style="text-anchor: end; visibility: hidden; font-family: Roboto, sans-serif; font-size: 12px; font-weight: 200;" fill="rgb(255, 255, 255)" stroke="none" stroke-width="1px">80</text></g><line x1="40" y1="0" x2="40" y2="177" fill="rgb(0, 0, 0)" stroke="rgb(204, 204, 204)" stroke-width="1px"></line></g></g><g transform="translate(40, 0)" clip-path="url(#clip_0)"><clipPath id="clip_0"><rect width="290" height="177"></rect></clipPath><g><g><g><line x1="0" y1="0" x2="0" y2="177" fill="rgb(0, 0, 0)" stroke="rgb(189, 189, 189)" stroke-width="1px" opacity="0.25"></line><line x1="20.71428571428571" y1="0" x2="20.71428571428571" y2="177" fill="rgb(0, 0, 0)" stroke="rgb(189, 189, 189)" stroke-width="1px" opacity="0.25"></line><line x1="41.42857142857142" y1="0" x2="41.42857142857142" y2="177" fill="rgb(0, 0, 0)" stroke="rgb(189, 189, 189)" stroke-width="1px" opacity="0.25"></line><line x1="62.14285714285714" y1="0" x2="62.14285714285714" y2="177" fill="rgb(0, 0, 0)" stroke="rgb(189, 189, 189)" stroke-width="1px" opacity="0.25"></line><line x1="82.85714285714285" y1="0" x2="82.85714285714285" y2="177" fill="rgb(0, 0, 0)" stroke="rgb(189, 189, 189)" stroke-width="1px" opacity="0.25"></line><line x1="103.57142857142857" y1="0" x2="103.57142857142857" y2="177" fill="rgb(0, 0, 0)" stroke="rgb(189, 189, 189)" stroke-width="1px" opacity="0.25"></line><line x1="124.28571428571428" y1="0" x2="124.28571428571428" y2="177" fill="rgb(0, 0, 0)" stroke="rgb(189, 189, 189)" stroke-width="1px" opacity="0.25"></line><line x1="145" y1="0" x2="145" y2="177" fill="rgb(0, 0, 0)" stroke="rgb(189, 189, 189)" stroke-width="1px" opacity="0.25"></line><line x1="165.7142857142857" y1="0" x2="165.7142857142857" y2="177" fill="rgb(0, 0, 0)" stroke="rgb(189, 189, 189)" stroke-width="1px" opacity="0.25"></line><line x1="186.42857142857144" y1="0" x2="186.42857142857144" y2="177" fill="rgb(0, 0, 0)" stroke="rgb(189, 189, 189)" stroke-width="1px" opacity="0.25"></line><line x1="207.14285714285714" y1="0" x2="207.14285714285714" y2="177" fill="rgb(0, 0, 0)" stroke="rgb(189, 189, 189)" stroke-width="1px" opacity="0.25"></line><line x1="227.85714285714286" y1="0" x2="227.85714285714286" y2="177" fill="rgb(0, 0, 0)" stroke="rgb(189, 189, 189)" stroke-width="1px" opacity="0.25"></line><line x1="248.57142857142856" y1="0" x2="248.57142857142856" y2="177" fill="rgb(0, 0, 0)" stroke="rgb(189, 189, 189)" stroke-width="1px" opacity="0.25"></line><line x1="269.2857142857143" y1="0" x2="269.2857142857143" y2="177" fill="rgb(0, 0, 0)" stroke="rgb(189, 189, 189)" stroke-width="1px" opacity="0.25"></line><line x1="290" y1="0" x2="290" y2="177" fill="rgb(0, 0, 0)" stroke="rgb(189, 189, 189)" stroke-width="1px" opacity="0.25"></line></g><g><line x1="0" y1="177" x2="290" y2="177" fill="rgb(0, 0, 0)" stroke="rgb(189, 189, 189)" stroke-width="1px" opacity="0.25"></line><line x1="0" y1="157.33333333333331" x2="290" y2="157.33333333333331" fill="rgb(0, 0, 0)" stroke="rgb(189, 189, 189)" stroke-width="1px" opacity="0.25"></line><line x1="0" y1="137.66666666666666" x2="290" y2="137.66666666666666" fill="rgb(0, 0, 0)" stroke="rgb(189, 189, 189)" stroke-width="1px" opacity="0.25"></line><line x1="0" y1="118.00000000000001" x2="290" y2="118.00000000000001" fill="rgb(0, 0, 0)" stroke="rgb(189, 189, 189)" stroke-width="1px" opacity="0.25"></line><line x1="0" y1="98.33333333333334" x2="290" y2="98.33333333333334" fill="rgb(0, 0, 0)" stroke="rgb(189, 189, 189)" stroke-width="1px" opacity="0.25"></line><line x1="0" y1="78.66666666666666" x2="290" y2="78.66666666666666" fill="rgb(0, 0, 0)" stroke="rgb(189, 189, 189)" stroke-width="1px" opacity="0.25"></line><line x1="0" y1="59.00000000000001" x2="290" y2="59.00000000000001" fill="rgb(0, 0, 0)" stroke="rgb(189, 189, 189)" stroke-width="1px" opacity="0.25"></line><line x1="0" y1="39.33333333333333" x2="290" y2="39.33333333333333" fill="rgb(0, 0, 0)" stroke="rgb(189, 189, 189)" stroke-width="1px" opacity="0.25"></line><line x1="0" y1="19.666666666666675" x2="290" y2="19.666666666666675" fill="rgb(0, 0, 0)" stroke="rgb(189, 189, 189)" stroke-width="1px" opacity="0.25"></line><line x1="0" y1="0" x2="290" y2="0" fill="rgb(0, 0, 0)" stroke="rgb(189, 189, 189)" stroke-width="1px" opacity="0.25"></line></g></g></g><g><g><line x1="0" y1="157.33333333333331" x2="290" y2="157.33333333333331" fill="rgb(0, 0, 0)" stroke="rgb(153, 153, 153)" stroke-width="1.5px"></line></g></g><g><g><line x1="20.71428571428571" y1="0" x2="20.71428571428571" y2="177" fill="rgb(0, 0, 0)" stroke="rgb(153, 153, 153)" stroke-width="1.5px"></line></g></g><g><g><g><g><g><path stroke="rgb(255, 112, 67)" stroke-width="2px" d="M20.900714285714287,9.833333333333337L21.201071428571428,25.197916666666675L21.356428571428573,29.901360544217706L21.366785714285715,54.57138480392158L21.63607142857143,67.15463798288228L21.78107142857143,63.73314983888292L21.822499999999998,71.9018958448559L22.04,86.65560991570848L22.412857142857145,85.41418861629502L22.495714285714286,84.67739137192493L22.6925,84.23817469130154L23.24142857142857,64.26609661467717L23.396785714285716,62.156903215846036L23.635,70.73419678725024L24.018214285714286,75.87626913088907L24.505000000000003,88.79607296385964L24.712142857142858,67.0406279748985L24.877857142857142,44.15538589407836L25.0125,59.92752596049737L25.240357142857142,59.55650201107498L25.53035714285714,69.16744537476852L25.633928571428573,84.76733921998854L25.69607142857143,103.96055510661976L25.996428571428574,105.64300770274049L26.23464285714286,77.15239028866505L26.28642857142857,69.89142178731348L26.307142857142857,55.70150521581179L26.472857142857144,76.68758268358265L26.887142857142855,49.94587309032534L27.311785714285715,43.73418914762057L27.37392857142857,40.00717966087225L27.384285714285713,57.43764251708816L27.529285714285717,77.72925314588387L27.705357142857142,99.73755251809406L28.627142857142857,83.44253123073351L28.875714285714288,63.83218520283733L29.041428571428572,91.39931129230582L29.590357142857144,98.10625346695433L29.68357142857143,92.2970854005636L29.89071428571429,88.81158456901224L30.470714285714283,47.386950708182745L31.112857142857145,81.53217044134135L31.226785714285715,82.35263559837503L31.340714285714284,112.3449146975543L31.36142857142857,110.67361548502554L31.454642857142854,109.67083595761946L31.65142857142857,109.06916824121582L32.20035714285714,98.87483427783394L32.22107142857143,122.25823390034871L32.36607142857143,96.9549403400047L32.63535714285714,101.43963087069123L32.645714285714284,113.96377852245118L32.77,82.14493378008181L32.873571428571424,102.38696026807028L32.894285714285715,104.69884282751029L33.32928571428572,106.08597236317335L33.401785714285715,87.25158341789974L33.68142857142857,95.61761671740767L33.70214285714286,120.30390336377995L33.77464285714286,115.4490086849344L34.15785714285714,122.36940521096082L34.644642857142856,97.02164312657607L34.955357142857146,91.64631920927891L35.39035714285714,98.25445819223407L35.61821428571429,112.05267491534049L35.80464285714286,100.66493828253759L36.18785714285715,93.83229630285588L36.27071428571429,109.39937778171355L36.35357142857143,108.90629333569478L36.38464285714286,118.44377600141686L36.74714285714286,124.16626560085012L36.95428571428571,117.76642602717673L37.13035714285714,104.09318894963936L37.24428571428571,105.7225800364503L37.56535714285714,106.70021468853686L37.64821428571428,107.28679547978878L38.010714285714286,87.97207728787328L38.166071428571435,96.04991303939063L38.362857142857145,100.89661449030108L38.43535714285714,93.97130202751399L39.118928571428576,99.64944788317504L39.24321428571428,93.22300206323837L39.97857142857143,109.03380123794304L40.41357142857142,128.35361407609915L40.48607142857143,110.44550177899283L40.80714285714286,119.36730106739569L40.85892857142858,114.88704730710408L41.01428571428571,92.53222838426245L41.02464285714286,59.452670363890796L41.21107142857143,69.10493555166781L42.153571428571425,74.89629466433402L42.246785714285714,88.20444346526708L42.61964285714286,96.18933274582692L43.65535714285714,100.9802663141628L43.90392857142857,94.02149312183103L43.955714285714286,109.51289587309861L44.7325,99.1410708571925L45.14678571428571,102.75130918098218L45.50928571428571,114.7507855085893L45.94428571428571,112.11713797182024L45.99607142857143,110.53694944975881L46.130714285714284,119.42216966985528L46.21357142857143,114.91996846857984L46.24464285714286,112.21864774781457L46.638214285714284,130.26452198202207L46.78321428571428,101.75871318921324L46.80392857142857,114.15522791352795L46.917857142857144,101.9264700814501L47.40464285714285,104.42254871553672L47.415,125.58686256265537L48.00535714285714,138.28545087092655L48.08821428571429,126.23793718922262L48.409285714285716,119.00942898020024L48.481785714285714,95.00565738812014L48.51285714285714,110.1033944328721L48.606071428571425,119.16203665972324L48.854642857142856,134.43055532916728L49.03071428571428,133.75833319750035L49.0825,123.5216665851669L49.09285714285714,127.21299995110012L49.237857142857145,119.59446663732673L49.24821428571428,134.69001331572937L49.35178571428571,133.91400798943764L49.38285714285714,133.44840479366258L49.558928571428574,143.00237620953087L50.169999999999995,119.23475905905185L50.967499999999994,114.80752210209779L51.31964285714286,121.98451326125866L51.506071428571424,136.12404129008854L51.982499999999995,134.77442477405313L52.2725,114.29798819776519L52.65571428571429,121.67879291865913L52.8525,135.9406090845288L53.018214285714286,144.4976987840506L53.2875,149.63195260376372L53.77428571428571,142.87917156225822L53.84678571428571,138.82750293735492L53.89857142857143,136.39650176241298L54.06428571428571,125.10456772411446L54.955,118.32940730113532L55.472857142857144,133.93097771401455L55.65928571428571,133.45858662840874L55.77321428571428,113.50848531037856L56.56035714285714,121.20509118622715L56.78821428571428,115.98972137840295L56.798571428571435,132.52716616037512L56.87107142857143,132.61629969622507L56.89178571428571,142.50311315106836L57.64785714285714,148.43520122397436L57.87571428571428,132.32778740105127L58,132.4966724406308L58.13464285714286,132.59800346437848L58.16571428571429,122.82546874529373L58.590357142857144,107.12861458050959L58.61107142857143,107.5438354149724L58.63178571428571,117.62630124898345L58.66285714285714,123.67578074939007L59.16,127.30546844963403L59.21178571428572,129.48328106978042L59.595,140.6233019752016L59.68821428571429,137.47398118512095L59.885,125.75105537773923L60.589285714285715,128.55063322664353L60.786071428571425,120.3970466026528L61.127857142857145,135.17156129492503L61.262499999999996,144.03627011028834L61.44892857142857,149.35509539950633L61.79071428571429,132.8797239063705L61.94607142857143,142.66116767715562L62.26714285714286,128.86336727296003L62.28785714285714,140.25135369710935L62.38107142857143,147.08414555159894L62.55714285714286,151.1838206642927L62.62964285714286,124.14362573190895L63.01285714285714,137.4195087724787L63.27178571428571,145.38503859682055L63.33392857142857,130.497689824759L63.42714285714286,131.3986138948554L63.655,141.77250167024658L64.0175,128.33016766881462L64.49392857142857,130.0981006012888L65.43642857142858,131.15886036077325L66.23392857142858,141.6286495497973L66.64821428571429,147.9105230632117L66.73107142857143,151.67964717126034L67.68392857142858,124.44112163608955L68.02571428571429,127.76467298165373L68.08785714285715,139.59213712232557L68.45035714285714,136.85528227339535L68.48142857142858,145.04650269737056L68.86464285714285,140.12790161842233L68.96821428571428,127.34340763772006L69.46535714285714,119.6727112492987L70.00392857142857,115.07029341624589L70.13857142857142,122.14217604974755L70.17999999999999,126.38530562984853L70.19035714285715,99.43118337790911L70.50107142857142,93.09204336007879L70.76,108.95522601604728L70.79107142857143,128.30646894296171L70.88428571428572,130.08388136577702L71.27785714285714,140.98366215279955L72.29285714285714,127.85686395834641L72.40678571428572,119.98078504167451L72.73821428571429,134.92180435833802L72.98678571428572,143.88641594833615L73.18357142857143,149.26518290233503L73.32857142857142,132.82577640806767L73.41142857142857,122.96213251150729L73.43214285714286,126.87727950690436L73.90857142857142,129.22636770414263L73.95,140.4691539558189L74.10535714285714,117.71482570682468L74.43678571428572,123.72889542409482L74.55071428571428,127.33733725445688L74.57142857142857,129.50240235267412L74.6232142857143,130.8014414116045L74.64392857142857,102.08086484696268L74.75785714285715,124.18185224151095L74.965,117.77577801157324L75.24464285714285,113.93213347361062L75.55535714285713,111.62594675083304L75.83500000000001,129.90890138383313L75.85571428571428,140.8786741636332L75.89714285714287,127.79387116484662L75.95928571428573,119.94298936557463L77.10892857142858,115.23246028601146L77.20214285714286,112.40614283827354L77.25392857142857,130.37701903629747L77.72,131.32621142177845L77.77178571428571,131.8957268530671L77.89607142857143,142.0707694451736L78.75571428571429,138.34246166710417L79.40821428571428,145.93881033359582L80.06071428571428,150.49661953349084L80.35071428571429,153.2313050534278L81.46928571428572,154.87211636539004L81.60392857142858,155.85660315256735L81.63499999999999,156.44729522487373L82.40142857142857,146.96837713492425L82.66035714285714,151.11435961428788L82.82607142857142,153.60194910190606L82.88821428571428,155.09450279447697L83.32321428571429,126.49003501001953L83.66499999999999,128.9940210060117L83.67535714285714,140.32974593694036L84.00678571428573,147.13118089549755L84.0275,141.37870853729854L84.28642857142857,128.09389178904578L84.30714285714285,139.7896684067608L84.32785714285714,136.9738010440565L84.59714285714286,145.11761395976723L85.1875,150.00390170919368L85.37392857142856,152.93567435884952L86.31642857142857,135.0280712819764L86.67892857142857,124.2835094358525L87.06214285714286,127.67010566151151L87.24857142857144,139.53539673024022L87.44535714285715,146.6545713714775L87.61107142857142,141.0927428228865L87.75607142857143,147.58897902706522L87.94250000000001,151.48672074957247L87.97357142857143,153.82536578307682L88.3567857142857,155.2285528031794L88.56392857142856,156.07046501524098L88.69857142857144,156.57561234247794L88.75035714285714,156.8787007388201L89.01964285714286,147.22722044329205L89.22678571428571,111.93633226597522L89.8275,130.09513269291847L90.31428571428572,131.1570796157511L90.41785714285714,141.627581102784L90.45928571428571,147.9098819950037L90.625,141.84592919700225L90.73892857142857,138.20755751820136L91.36035714285715,145.85786784425414L91.57785714285714,140.61472070655248L91.66071428571428,147.30216575726482L91.75392857142857,151.3146327876922L91.91964285714285,143.88877967261533L92.48928571428571,149.26660113690252L92.56178571428572,142.65996068214153L92.95535714285715,148.52930974261824L93.12107142857143,152.05091917890428L93.19357142857142,154.1638848406759L93.40071428571429,155.4316642377389L93.67,146.35899854264332L94.42607142857143,150.74873245891933L94.45714285714287,153.38257280868493L94.5192857142857,154.96287701854428L95.0475,155.9110595444599L95.07857142857142,146.64663572667595L95.54464285714286,150.9213147693389L95.83464285714285,153.48612219493668L96.05214285714287,145.191673316962L96.4042857142857,150.04833732351054L96.67357142857142,152.96233572743967L96.715,154.71073476979714L96.87035714285715,155.7597741952116L96.92214285714286,156.3891978504603L97.01535714285714,156.76685204360953L97.20178571428572,156.99344455949904L97.60571428571428,157.12940006903276L97.73,157.210973374753L98.02000000000001,157.25991735818513L98.06142857142856,147.4559504149111L98.20642857142857,141.57357024894665L98.45500000000001,147.87747548270133L98.5792857142857,141.8264852896208L98.66214285714285,138.19589117377248L98.72428571428571,136.01753470426348L98.83821428571429,144.54385415589144L98.92107142857142,149.65964582686817L98.94178571428571,152.72912082945425L99.35607142857143,154.57080583100588L99.47000000000001,155.67581683193686L99.50107142857142,156.33882343249545L99.82214285714285,156.7366273928306L100.74392857142858,156.9753097690317L101.0442857142857,157.11851919475234L101.09607142857142,157.20444485018476L101.44821428571429,157.2560002434442L101.7175,147.4536001460665L102.06964285714287,141.5721600876399L102.08,138.04329605258394L102.34928571428571,145.7593109648837L102.48392857142856,140.55558657893025L102.80499999999999,147.26668528069146L102.83607142857143,151.2933445017482L103.42642857142857,153.70934003438225L103.90285714285713,155.15893735396267L104.13071428571429,136.3620290790443L104.37928571428571,144.7505507807599L104.5657142857143,149.7836638017893L104.835,152.8035316144069L105.06285714285714,154.61545230197748L105.27,155.70260471451982L105.56,156.35489616204524L105.80857142857144,156.74627103056045L106.2125,156.98109595166963L106.44035714285715,147.28865757100178L106.58535714285715,151.3065278759344L107.18607142857142,153.71725005889397L107.33107142857143,155.16368336866972L107.47607142857143,156.03154335453516L107.82821428571428,156.55225934605443L107.88,147.03135560763266L108.65678571428572,151.15214669791294L108.79142857142858,143.79128801874776L108.96749999999999,139.37477281124865L109.06071428571428,146.55819702008253L109.24714285714286,150.86825154538283L109.30928571428572,153.45428426056304L109.40249999999999,145.17257055633783L109.84785714285714,150.03687566713603L109.97214285714286,152.95545873361496L109.99285714285715,154.7066085735023L110.06535714285715,155.75729847743472L110.4382142857143,156.38771241979416L110.82142857142857,156.7659607852098L111.00785714285715,156.99290980445923L111.36,157.12907921600888L111.38071428571428,157.21078086293866L111.73285714285714,157.25980185109654L111.84678571428572,147.4558811106579L112.19892857142857,151.40686199972808L112.53035714285714,153.7774505331702L112.58214285714287,155.19980365323545L112.65464285714286,156.0532155252746L112.76857142857142,136.89859598183145L113.825,145.0724909224322L114.43607142857144,149.97682788679265L114.5292857142857,143.0860967320756L114.65357142857142,148.78499137257867L115.14035714285714,152.20432815688054L115.18178571428572,144.42259689412833L115.50285714285715,139.75355813647698L115.9275,146.7854682152195L116.26928571428572,131.33794759579837L116.9425,141.73610189081236L117.06678571428571,147.97499446782075L117.0875,151.71833001402578L117.16000000000001,153.9643313417488L117.70892857142857,155.31193213838262L117.71928571428572,146.28715928302955L117.78142857142856,150.70562890315108L117.83321428571428,153.35671067522398L117.93678571428572,154.94735973846772L118.65142857142857,155.90174917641397L118.81714285714285,156.47438283918171L118.98285714285716,156.81796303684237L118.99321428571429,157.02411115543876L119.5007142857143,157.1478000265966L119.59392857142856,157.2220133492913L119.68714285714286,137.59987467624143L120.15321428571428,135.65992480574485L120.21535714285714,144.32928821678027L120.87821428571428,149.53090626340148L120.88857142857144,152.65187709137422L120.91964285714286,154.52445958815787L121.0957142857143,155.64800908622806L121.30285714285714,156.32213878507017L121.57214285714285,156.72661660437544L121.7275,156.96930329595858L121.73785714285714,157.1149153109085L121.92428571428572,157.20228251987842L122.08999999999999,157.2547028452604L122.34892857142857,157.28615504048958L122.46285714285713,157.30502635762707L122.59750000000001,157.3163491479096L122.90821428571428,157.3231428220791L122.9807142857143,157.32721902658076L123.18785714285714,157.32966474928182L123.41571428571427,157.33113218290242L123.42607142857143,147.49867930974145L123.74714285714286,151.43254091917822L123.76785714285714,143.95952455150695L123.87142857142858,149.3090480642375L124.06821428571429,152.51876217187584L124.15107142857143,154.44459063645883L124.21321428571429,155.60008771520862L125.21785714285714,156.2933859624585L125.53892857142857,156.70936491080843L125.59071428571428,156.9589522798184L125.715,157.10870470122438L126.24321428571429,147.36522282073463L126.26392857142856,151.3524670257741L126.44,153.7448135487978L126.5125,155.180221462612L127.07178571428571,146.2081328775672L127.18571428571428,150.65821305987367L127.35142857142858,153.32826116925753L127.86928571428572,154.93029003488786L128.37678571428572,155.89150735426605L128.89464285714286,156.46823774589296L128.9567857142857,146.98094264753578L128.96714285714287,141.28856558852146L129.02928571428572,147.7064726864462L129.6507142857143,141.72388361186773L130.09607142857143,147.96766350045397L130.22035714285713,151.71393143360572L130.645,153.96169219349676L130.84178571428572,155.31034864943138L130.94535714285715,156.11954252299216L130.96607142857144,156.60505884712865L131.71178571428572,147.06303530827716L131.78428571428572,151.17115451829966L131.83607142857144,153.63602604431313L132.00178571428572,155.1149489599212L132.0742857142857,156.00230270928606L132.20892857142857,146.70138162557163L132.27107142857145,150.95416230867633L132.66464285714287,153.50583071853913L133.00642857142856,155.03683176445682L133.6175,155.95543239200742L134.3942857142857,156.50659276853779L134.87071428571429,156.837288994456L134.93285714285716,157.03570673000695L135.0157142857143,157.1547573713375L135.20214285714286,157.22618775613583L136.02035714285714,157.26904598701483L136.40357142857144,157.29476092554222L136.9007142857143,157.31018988865867L136.97321428571428,157.31944726652853L136.98357142857142,157.32500169325044L137.10785714285714,157.3283343492836L137.2942857142857,157.3303339429035L137.69821428571427,157.33153369907544L138.07107142857143,157.33225355277858L138.72357142857143,157.33268546500048L138.87892857142856,157.33294461233362L139.23107142857143,147.49976676740016L139.30357142857144,151.43319339377345L139.38642857142858,153.7932493695974L139.43821428571428,155.20928295509177L139.8525,156.05890310638839L140.09071428571428,156.56867519716636L140.40142857142857,156.87453845163316L140.54642857142858,157.05805640431322L140.62928571428571,157.16816717592127L140.97107142857143,157.23423363888608L141.85142857142858,157.273873516665L142.0275,157.29765744333233L142.26571428571427,157.31192779933272L142.41071428571428,157.32049001293296L142.78357142857143,157.3256273410931L143.10464285714286,157.32870973798921L143.30142857142857,157.33055917612685L143.4567857142857,157.33166883900944L143.77785714285713,157.332334636739L144.38892857142858,157.33273411537672L144.68928571428572,147.49964046922602L144.7617857142857,141.59978428153562L144.9482142857143,138.05987056892138L145.27964285714287,145.76925567468615L145.59035714285713,150.39488673814503L145.6525,153.17026537622036L145.70428571428573,154.83549255906553L145.78714285714284,155.83462886877265L146.39821428571426,156.43411065459694L146.8125,156.7937997260915L146.85392857142855,157.00961316898824L147.46499999999997,157.13910123472627L147.54785714285714,157.2167940741691L148.12785714285715,157.2634097778348L148.14857142857144,157.2913792000342L148.19,157.30816085335385L148.28321428571428,147.4848965120123L148.5732142857143,151.42427124054072L148.66642857142858,153.78789607765776L148.71821428571428,155.206070979928L148.7907142857143,156.05697592129013L149.36035714285714,156.56751888610742L149.3707142857143,156.8738446649978L149.38107142857143,157.057640132332L149.5260714285714,157.16791741273255L149.93,157.23408378097284L149.9507142857143,157.27378360191705L149.97142857142856,157.29760349448355L150.73785714285714,157.31189543002347L151.22464285714287,157.3204705913474L151.6492857142857,157.3256156881418L151.7632142857143,157.3287027462184L152.0325,157.33055498106438L152.52964285714285,157.33166632197197L153.1925,157.33233312651652L153.7725,157.33273320924323L153.88642857142858,157.3329732588793L154.77714285714285,157.3331172886609L155.06714285714284,157.33320370652987L155.16035714285715,157.33325555725125L155.32607142857142,157.33328666768406L155.46071428571426,157.3333053339438L155.54357142857143,157.33331653369962L155.6057142857143,157.33332325355312L155.74035714285714,157.3333272854652L155.84392857142856,157.33332970461245L155.85428571428574,157.3333311561008L156.31,157.33333202699382L157.30428571428573,157.33333254952962L157.40785714285715,157.3333328630511L157.7082142857143,157.333333051164L157.78071428571428,157.33333316403173L157.87392857142856,157.33333323175236L157.94642857142856,157.33333327238475L158.4125,157.33333329676418L158.5057142857143,157.33333331139184L159.37571428571428,157.33333332016844L160.06964285714284,157.33333332543438L160.45285714285714,157.33333332859397L160.76357142857142,157.33333333048972L160.85678571428573,157.33333333162716L161.05357142857144,157.33333333230962L161.13642857142855,157.33333333271912L161.44714285714286,157.3333333329648L161.48857142857142,157.33333333311222L162.05821428571429,157.33333333320067L162.19285714285715,157.33333333325373L162.62785714285715,157.33333333328557L162.77285714285713,157.33333333330467L163.21821428571428,157.33333333331612L163.44607142857143,157.33333333332303L163.66357142857143,157.33333333332715L164.15035714285716,157.33333333332962L164.33678571428572,157.3333333333311L164.575,157.33333333333198L164.84428571428572,157.33333333333255L165.41392857142858,157.33333333333286L165.77642857142857,157.33333333333306L166.07678571428573,157.33333333333317L166.19071428571428,157.33333333333323L166.57392857142858,157.33333333333326L166.7707142857143,157.3333333333333L166.9157142857143,157.33333333333331L167.02964285714285,157.33333333333331L167.09178571428572,157.33333333333331L167.1642857142857,147.5L167.54749999999999,141.6L167.72357142857143,147.89333333333335L167.84785714285712,151.66933333333333L167.87892857142856,153.93493333333333L167.96178571428572,155.29429333333334L168.02392857142857,156.10990933333335L168.45892857142857,156.59927893333335L169.24607142857144,156.89290069333333L169.32892857142855,147.235740416L169.38071428571428,141.4414442496L169.505,147.79819988309333L169.51535714285714,151.61225326318933L169.5982142857143,153.90068529124693L169.85714285714286,155.27374450808148L169.90892857142856,156.09758003818223L170.1367857142857,156.59188135624268L170.14714285714285,156.88846214707894L171.25535714285715,157.0664106215807L171.26571428571427,157.17317970628176L171.69035714285715,157.2372411571024L172.1667857142857,157.27567802759475L172.39464285714286,157.2987401498902L173.19214285714284,157.31257742326744L173.33714285714288,157.3208797872938L173.58571428571426,157.3258612057096L173.84464285714284,157.3288500567591L174.10357142857143,157.3306433673888L174.1967857142857,157.3317193537666L174.4142857142857,157.3323649455933L174.5282142857143,157.33275230068932L174.66285714285715,157.33298471374692L174.7042857142857,157.33312416158148L175.02535714285713,157.33320783028222L175.07714285714286,157.33325803150265L175.13928571428573,157.33328815223493L175.29464285714283,157.3333062246743L175.45,157.33331706813792L175.595,157.33332357421608L175.89535714285714,157.33332747786298L176.2682142857143,157.33332982005112L176.75500000000002,157.333331225364L176.79642857142858,157.33333206855173L177.08642857142857,157.33333257446438L177.2107142857143,157.33333287801196L177.31428571428572,157.33333306014052L177.50071428571428,157.33333316941764L177.89428571428573,157.3333332349839L177.9875,157.33333327432368L178.1325,157.33333329792754L179.365,157.33333331208988L179.53071428571428,157.33333332058726L179.6757142857143,157.3333333256857L179.8207142857143,157.33333332874474L179.91392857142858,157.3333333305802L180.41107142857143,157.33333333168144L180.63892857142858,157.33333333234222L180.85642857142858,157.33333333273865L181.14642857142857,157.3333333329765L181.16714285714284,157.33333333311924L182.3892857142857,157.33333333320488L182.6792857142857,147.49999999992295L183.32142857142856,151.4333333332871L183.44571428571427,153.79333333330558L183.82892857142858,155.2093333333167L184.18107142857144,156.05893333332335L184.28464285714284,156.56869333332733L184.3675,156.87454933332975L184.50214285714287,157.05806293333117L184.56428571428572,157.16817109333203L184.6782142857143,157.23423598933257L185.1132142857143,157.27387492693285L185.13392857142856,157.29765828949306L185.61035714285714,157.31192830702915L185.6207142857143,157.32049031755082L186.035,157.32562752386383L186.6564285714286,157.32870984765162L187.01892857142857,157.3305592419243L187.02928571428572,157.33166887848793L187.66107142857143,147.49900132709274L187.83714285714285,151.432734129589L188.6657142857143,153.7929738110867L188.6864285714286,155.20911761998536L189.19392857142856,156.05880390532457L189.35964285714283,156.56861567652805L189.37,156.87450273925018L189.39071428571427,157.05803497688345L190.1157142857143,157.16815431946338L190.84071428571428,157.23422592501137L191.34821428571428,157.27386888834016L191.36892857142857,157.29765466633742L191.4725,157.31192613313578L191.83499999999998,147.48715567988148L191.9282142857143,151.42562674126222L192.02142857142857,153.78870937809066L192.67392857142858,155.20655896018775L192.71535714285716,156.05726870944596L193.31607142857143,156.56769455900093L193.55428571428573,156.87395006873388L193.7407142857143,157.05770337457366L194.05142857142857,157.16795535807753L194.24821428571428,157.23410654817985L194.91107142857143,157.27379726224123L194.95250000000001,157.29761169067808L195.48071428571427,157.31190034774016L195.90535714285713,157.32047354197746L195.9675,157.32561745851982L195.9882142857143,157.3287038084452L196.05035714285714,157.33055561840047L196.765,157.33166670437362L196.77535714285713,157.3323333559575L196.94107142857143,157.33273334690784L197.06535714285712,157.33297334147804L197.18964285714284,157.33311733822015L197.8317857142857,157.33320373626543L197.85250000000002,157.33325557509258L198.18392857142857,157.3332866783889L198.1942857142857,157.33330534036668L198.215,157.33331653755334L198.37035714285716,157.33332325586534L199.54071428571427,157.33332728685252L199.8410714285714,157.33332970544487L199.92392857142858,157.33333115660025L199.9342857142857,157.3333320272935L200.79392857142858,157.3333325497094L200.86642857142857,157.333332863159L201.85035714285715,157.33333305122872L202.0057142857143,157.33333316407058L202.01607142857142,157.33333323177567L202.17142857142858,157.33333327239873L202.18178571428572,157.3333332967726L202.40964285714284,157.33333331139687L202.67892857142857,157.33333332017145L203.0207142857143,157.33333332543623L203.34178571428572,157.33333332859505L203.8907142857143,157.33333333049038L204.3982142857143,157.33333333162756L204.43964285714284,157.33333333230988L204.50178571428572,157.33333333271926L204.58464285714288,157.33333333296488L204.62607142857144,157.33333333311228L204.99892857142856,157.3333333332007L205.03,157.33333333325373L205.14392857142857,157.3333333332856L205.32,157.33333333330467L205.4442857142857,157.33333333331615L205.69285714285715,157.33333333332303L205.89999999999998,157.33333333332715L206.17964285714285,157.33333333332962L206.25214285714284,157.3333333333311L206.48,157.33333333333198L206.6975,157.33333333333255L206.72857142857143,157.33333333333286L207.19464285714284,157.33333333333306L208.67571428571426,157.33333333333317L209.21428571428572,157.33333333333323L209.25571428571428,157.33333333333326L209.31785714285712,157.3333333333333L209.39035714285717,157.33333333333331L209.4525,157.33333333333331L209.60785714285714,157.33333333333331L209.69071428571428,157.33333333333331L210.00142857142856,157.33333333333331L210.0117857142857,157.33333333333331L210.13607142857143,157.33333333333331L210.34321428571428,157.33333333333331L210.41571428571427,157.33333333333331L210.6642857142857,157.33333333333331L210.89214285714286,157.33333333333331L211.09928571428574,157.33333333333331L211.2235714285714,157.33333333333331L211.88642857142858,157.33333333333331L212.24892857142856,157.33333333333331L212.25928571428574,157.33333333333331L212.38357142857143,157.33333333333331L212.43535714285716,157.33333333333331L212.77714285714288,157.33333333333331L213.67821428571426,157.33333333333331L213.74035714285714,157.33333333333331L213.77142857142857,157.33333333333331L213.97857142857143,157.33333333333331L214.05107142857142,157.33333333333331L214.37214285714285,157.33333333333331L215.11785714285713,157.33333333333331L215.18,157.33333333333331L215.19035714285712,157.33333333333331L215.45964285714285,157.33333333333331L215.55285714285716,157.33333333333331L215.81178571428572,157.33333333333331L216.1225,157.33333333333331L216.57821428571427,157.33333333333331L216.8060714285714,147.5L217.19964285714286,151.43333333333334L217.3032142857143,153.79333333333332L217.34464285714284,155.20933333333332L217.35500000000002,156.05893333333333L218.33892857142857,156.56869333333333L218.35964285714286,156.87454933333333L218.41142857142856,157.05806293333333L219.03285714285715,157.16817109333334L219.05357142857142,157.23423598933334L219.47821428571427,157.27387492693333L219.9960714285714,157.2976582894933L220.07892857142858,157.31192830702935L220.33785714285713,157.32049031755093L220.52428571428572,157.3256275238639L220.80392857142857,157.32870984765168L220.99035714285714,157.33055924192433L221.125,157.33166887848793L221.3632142857143,157.33233466042608L222.5232142857143,147.49940079625566L222.56464285714284,151.43297381108673L222.73035714285714,153.79311761998537L223.02035714285714,155.20920390532456L223.43464285714285,156.05885567652805L224.0767857142857,156.56864673925017L224.09750000000003,156.87452137688342L224.13892857142858,157.0580461594634L224.20107142857142,157.16816102901137L224.78107142857144,157.23422995074014L224.9467857142857,157.2738713037774L225.0917857142857,157.29765611559978L225.44392857142856,157.3119270026932L225.60964285714283,157.32048953494925L226.33464285714285,157.32562705430288L226.345,157.32870956591506L226.38642857142858,157.33055907288238L226.52107142857145,157.33166877706276L226.67642857142857,157.332334599571L226.73857142857142,157.33273409307594L227.30821428571429,157.33297378917888L227.44285714285712,157.33311760684066L227.69142857142856,157.33320389743776L227.9192857142857,157.33325567179597L229.7525,157.33328673641094L229.97,157.33330537517986L230.28071428571428,157.33331655844125L230.61214285714289,157.3333232683981L230.70535714285714,157.3333272943722L231.0885714285714,157.33332970995664L231.5442857142857,157.3333311593073L231.6375,157.33333202891774L231.84464285714287,157.33333255068396L232.0725,157.33333286374372L232.1657142857143,157.33333305157956L232.31071428571428,157.33333316428107L232.51785714285717,157.33333323190197L232.54892857142858,157.3333332724745L232.93214285714288,157.33333329681804L233.22214285714284,157.33333331142416L233.31535714285712,157.33333332018782L233.4085714285714,157.33333332544603L233.42928571428573,157.33333332860096L234.28892857142858,157.3333333304939L234.40285714285713,157.33333333162966L234.6825,157.33333333231113L234.9517857142857,157.33333333272003L235.2107142857143,157.33333333296534L235.2417857142857,157.33333333311253L235.41785714285714,157.33333333320087L236.33964285714285,157.33333333325385L236.3810714285714,157.33333333328565L236.53642857142856,157.33333333330472L236.55714285714285,157.33333333331618L236.60892857142858,157.33333333332303L236.67107142857142,157.33333333332715L236.8057142857143,157.33333333332962L236.88857142857142,157.3333333333311L237.26142857142858,157.33333333333198L237.42714285714285,157.33333333333255L238.17285714285714,157.33333333333286L238.22464285714287,157.33333333333306L238.47321428571428,157.33333333333317L238.68035714285716,157.33333333333323L238.7425,157.33333333333326L239.0532142857143,157.3333333333333L239.30178571428573,157.33333333333331L239.4157142857143,157.33333333333331L239.65392857142857,157.33333333333331L239.77821428571428,157.33333333333331L240.79321428571427,157.33333333333331L240.92785714285714,157.33333333333331L241.2282142857143,157.33333333333331L241.34214285714285,157.33333333333331L241.58035714285717,157.33333333333331L241.7046428571429,157.33333333333331L241.81857142857143,157.33333333333331L241.95321428571427,157.33333333333331L242.91642857142858,157.33333333333331L242.93714285714287,157.33333333333331L243.03035714285716,157.33333333333331L243.0717857142857,157.33333333333331L243.08214285714286,157.33333333333331L243.15464285714285,157.33333333333331L243.29964285714286,157.33333333333331L243.32035714285715,157.33333333333331L243.37214285714285,157.33333333333331L243.84857142857143,157.33333333333331L243.91071428571428,157.33333333333331L244.31464285714284,157.33333333333331L244.34571428571428,157.33333333333331L246.74857142857144,157.33333333333331L246.99714285714288,157.33333333333331L247.26642857142858,157.33333333333331L247.2767857142857,157.33333333333331L247.50464285714284,157.33333333333331L247.56678571428571,157.33333333333331L247.6082142857143,157.33333333333331L247.77392857142857,157.33333333333331L248.01214285714286,157.33333333333331L248.46785714285713,157.33333333333331L248.92357142857142,157.33333333333331L249.02714285714288,157.33333333333331L249.04785714285714,157.33333333333331L249.2757142857143,157.33333333333331L250.01107142857143,157.33333333333331L250.03178571428572,157.33333333333331L250.41500000000002,157.33333333333331L250.91214285714287,157.33333333333331L251.12964285714287,157.33333333333331L251.5025,157.33333333333331L251.60607142857145,157.33333333333331L251.7925,157.33333333333331L252.35178571428574,157.33333333333331L252.92142857142855,157.33333333333331L253.3667857142857,157.33333333333331L253.6775,157.33333333333331L253.90535714285716,157.33333333333331L253.92607142857142,157.33333333333331L254.17464285714286,157.33333333333331L254.18499999999997,157.33333333333331L255.28285714285715,157.33333333333331L255.2932142857143,157.33333333333331L255.55214285714285,157.33333333333331L255.91464285714287,157.33333333333331L256.27714285714285,157.33333333333331L256.3392857142857,157.33333333333331L256.3807142857143,157.33333333333331L257.00214285714287,157.33333333333331L257.05392857142857,157.33333333333331L257.18857142857144,157.33333333333331L257.4267857142857,157.33333333333331L257.7892857142857,157.33333333333331L258.3382142857143,157.33333333333331L258.7525,157.33333333333331L259.1667857142857,157.33333333333331L259.1978571428571,157.33333333333331L259.5396428571429,157.33333333333331L259.76750000000004,157.33333333333331L259.87107142857144,157.33333333333331L260.1196428571429,157.33333333333331L260.2025,157.33333333333331L260.36821428571426,157.33333333333331L260.66857142857145,157.33333333333331L261.6317857142857,157.33333333333331L262.3567857142857,157.33333333333331L262.55357142857144,157.33333333333331L262.57428571428574,157.33333333333331L262.94714285714286,157.33333333333331L263.13357142857143,157.33333333333331L263.16464285714284,157.33333333333331L263.4132142857143,157.33333333333331L263.88964285714286,157.33333333333331L264.37642857142856,157.33333333333331L264.6975,157.33333333333331L264.915,157.33333333333331L265.4535714285714,157.33333333333331L266.0439285714286,157.33333333333331L266.3132142857143,157.33333333333331L267.07964285714286,157.33333333333331L267.19357142857143,157.33333333333331L267.22464285714284,157.33333333333331L267.53535714285715,157.33333333333331L267.59749999999997,157.33333333333331L268.06357142857144,157.33333333333331L269.0889285714286,157.33333333333331L269.7207142857143,157.33333333333331L269.9692857142857,157.33333333333331L270.0314285714286,157.33333333333331L270.24892857142856,157.33333333333331L270.4975,157.33333333333331L270.72535714285715,157.33333333333331L270.86,157.33333333333331L271.3157142857143,157.33333333333331L271.66785714285714,157.33333333333331L271.7092857142857,157.33333333333331L271.8853571428571,157.33333333333331L271.9060714285714,157.33333333333331L273.0867857142857,157.33333333333331L273.2939285714286,157.33333333333331L273.3975,157.33333333333331L273.6564285714286,157.33333333333331L274.1017857142857,157.33333333333331L274.24678571428575,157.33333333333331L274.39178571428573,157.33333333333331L274.6610714285714,157.33333333333331L274.7542857142857,157.33333333333331L275.24107142857144,157.33333333333331L275.2825,157.33333333333331L275.3860714285714,157.33333333333331L275.5,157.33333333333331L275.5414285714286,147.5L275.5725,151.43333333333334L275.65535714285716,153.79333333333332L275.87285714285713,155.20933333333332L275.9453571428571,156.05893333333333L276.16285714285715,156.56869333333333L276.52535714285716,156.87454933333333L276.7325,157.05806293333333L276.75321428571425,157.16817109333334L276.9292857142857,157.23423598933334L277.0742857142857,157.27387492693333L277.7164285714286,157.2976582894933L277.7371428571429,157.31192830702935L277.88214285714287,157.32049031755093L278.3275,157.3256275238639L278.43107142857144,157.32870984765168L278.86607142857144,157.33055924192433L278.96964285714284,157.33166887848793L279.1042857142857,157.33233466042608L279.5185714285714,157.33273412958897L279.74642857142857,157.33297381108673L279.995,157.33311761998536L280.5439285714286,157.33320390532455" style="fill: none;" fill="none"></path></g></g></g></g><g opacity="0.2"><g><g><g><path stroke="rgb(255, 112, 67)" stroke-width="2px" d="M20.900714285714287,9.833333333333337L21.201071428571428,34.416666666666664L21.356428571428573,34.416666666666664L21.366785714285715,83.58333333333333L21.63607142857143,83.58333333333333L21.78107142857143,59.00000000000001L21.822499999999998,83.58333333333333L22.04,108.16666666666667L22.412857142857145,83.58333333333333L22.495714285714286,83.58333333333333L22.6925,83.58333333333333L23.24142857142857,34.416666666666664L23.396785714285716,59.00000000000001L23.635,83.58333333333333L24.018214285714286,83.58333333333333L24.505000000000003,108.16666666666667L24.712142857142858,34.416666666666664L24.877857142857142,9.833333333333337L25.0125,83.58333333333333L25.240357142857142,59.00000000000001L25.53035714285714,83.58333333333333L25.633928571428573,108.16666666666667L25.69607142857143,132.75L25.996428571428574,108.16666666666667L26.23464285714286,34.416666666666664L26.28642857142857,59.00000000000001L26.307142857142857,34.416666666666664L26.472857142857144,108.16666666666667L26.887142857142855,9.833333333333337L27.311785714285715,34.416666666666664L27.37392857142857,34.416666666666664L27.384285714285713,83.58333333333333L27.529285714285717,108.16666666666667L27.705357142857142,132.75L28.627142857142857,59.00000000000001L28.875714285714288,34.416666666666664L29.041428571428572,132.75L29.590357142857144,108.16666666666667L29.68357142857143,83.58333333333333L29.89071428571429,83.58333333333333L30.470714285714283,-14.749999999999988L31.112857142857145,132.75L31.226785714285715,83.58333333333333L31.340714285714284,157.33333333333331L31.36142857142857,108.16666666666667L31.454642857142854,108.16666666666667L31.65142857142857,108.16666666666667L32.20035714285714,83.58333333333333L32.22107142857143,157.33333333333331L32.36607142857143,59.00000000000001L32.63535714285714,108.16666666666667L32.645714285714284,132.75L32.77,34.416666666666664L32.873571428571424,132.75L32.894285714285715,108.16666666666667L33.32928571428572,108.16666666666667L33.401785714285715,59.00000000000001L33.68142857142857,108.16666666666667L33.70214285714286,157.33333333333331L33.77464285714286,108.16666666666667L34.15785714285714,132.75L34.644642857142856,59.00000000000001L34.955357142857146,83.58333333333333L35.39035714285714,108.16666666666667L35.61821428571429,132.75L35.80464285714286,83.58333333333333L36.18785714285715,83.58333333333333L36.27071428571429,132.75L36.35357142857143,108.16666666666667L36.38464285714286,132.75L36.74714285714286,132.75L36.95428571428571,108.16666666666667L37.13035714285714,83.58333333333333L37.24428571428571,108.16666666666667L37.56535714285714,108.16666666666667L37.64821428571428,108.16666666666667L38.010714285714286,59.00000000000001L38.166071428571435,108.16666666666667L38.362857142857145,108.16666666666667L38.43535714285714,83.58333333333333L39.118928571428576,108.16666666666667L39.24321428571428,83.58333333333333L39.97857142857143,132.75L40.41357142857142,157.33333333333331L40.48607142857143,83.58333333333333L40.80714285714286,132.75L40.85892857142858,108.16666666666667L41.01428571428571,59.00000000000001L41.02464285714286,9.833333333333337L41.21107142857143,83.58333333333333L42.153571428571425,83.58333333333333L42.246785714285714,108.16666666666667L42.61964285714286,108.16666666666667L43.65535714285714,108.16666666666667L43.90392857142857,83.58333333333333L43.955714285714286,132.75L44.7325,83.58333333333333L45.14678571428571,108.16666666666667L45.50928571428571,132.75L45.94428571428571,108.16666666666667L45.99607142857143,108.16666666666667L46.130714285714284,132.75L46.21357142857143,108.16666666666667L46.24464285714286,108.16666666666667L46.638214285714284,157.33333333333331L46.78321428571428,59.00000000000001L46.80392857142857,132.75L46.917857142857144,83.58333333333333L47.40464285714285,108.16666666666667L47.415,157.33333333333331L48.00535714285714,157.33333333333331L48.08821428571429,108.16666666666667L48.409285714285716,108.16666666666667L48.481785714285714,59.00000000000001L48.51285714285714,132.75L48.606071428571425,132.75L48.854642857142856,157.33333333333331L49.03071428571428,132.75L49.0825,108.16666666666667L49.09285714285714,132.75L49.237857142857145,108.16666666666667L49.24821428571428,157.33333333333331L49.35178571428571,132.75L49.38285714285714,132.75L49.558928571428574,157.33333333333331L50.169999999999995,83.58333333333333L50.967499999999994,108.16666666666667L51.31964285714286,132.75L51.506071428571424,157.33333333333331L51.982499999999995,132.75L52.2725,83.58333333333333L52.65571428571429,132.75L52.8525,157.33333333333331L53.018214285714286,157.33333333333331L53.2875,157.33333333333331L53.77428571428571,132.75L53.84678571428571,132.75L53.89857142857143,132.75L54.06428571428571,108.16666666666667L54.955,108.16666666666667L55.472857142857144,157.33333333333331L55.65928571428571,132.75L55.77321428571428,83.58333333333333L56.56035714285714,132.75L56.78821428571428,108.16666666666667L56.798571428571435,157.33333333333331L56.87107142857143,132.75L56.89178571428571,157.33333333333331L57.64785714285714,157.33333333333331L57.87571428571428,108.16666666666667L58,132.75L58.13464285714286,132.75L58.16571428571429,108.16666666666667L58.590357142857144,83.58333333333333L58.61107142857143,108.16666666666667L58.63178571428571,132.75L58.66285714285714,132.75L59.16,132.75L59.21178571428572,132.75L59.595,157.33333333333331L59.68821428571429,132.75L59.885,108.16666666666667L60.589285714285715,132.75L60.786071428571425,108.16666666666667L61.127857142857145,157.33333333333331L61.262499999999996,157.33333333333331L61.44892857142857,157.33333333333331L61.79071428571429,108.16666666666667L61.94607142857143,157.33333333333331L62.26714285714286,108.16666666666667L62.28785714285714,157.33333333333331L62.38107142857143,157.33333333333331L62.55714285714286,157.33333333333331L62.62964285714286,83.58333333333333L63.01285714285714,157.33333333333331L63.27178571428571,157.33333333333331L63.33392857142857,108.16666666666667L63.42714285714286,132.75L63.655,157.33333333333331L64.0175,108.16666666666667L64.49392857142857,132.75L65.43642857142858,132.75L66.23392857142858,157.33333333333331L66.64821428571429,157.33333333333331L66.73107142857143,157.33333333333331L67.68392857142858,83.58333333333333L68.02571428571429,132.75L68.08785714285715,157.33333333333331L68.45035714285714,132.75L68.48142857142858,157.33333333333331L68.86464285714285,132.75L68.96821428571428,108.16666666666667L69.46535714285714,108.16666666666667L70.00392857142857,108.16666666666667L70.13857142857142,132.75L70.17999999999999,132.75L70.19035714285715,59.00000000000001L70.50107142857142,83.58333333333333L70.76,132.75L70.79107142857143,157.33333333333331L70.88428571428572,132.75L71.27785714285714,157.33333333333331L72.29285714285714,108.16666666666667L72.40678571428572,108.16666666666667L72.73821428571429,157.33333333333331L72.98678571428572,157.33333333333331L73.18357142857143,157.33333333333331L73.32857142857142,108.16666666666667L73.41142857142857,108.16666666666667L73.43214285714286,132.75L73.90857142857142,132.75L73.95,157.33333333333331L74.10535714285714,83.58333333333333L74.43678571428572,132.75L74.55071428571428,132.75L74.57142857142857,132.75L74.6232142857143,132.75L74.64392857142857,59.00000000000001L74.75785714285715,157.33333333333331L74.965,108.16666666666667L75.24464285714285,108.16666666666667L75.55535714285713,108.16666666666667L75.83500000000001,157.33333333333331L75.85571428571428,157.33333333333331L75.89714285714287,108.16666666666667L75.95928571428573,108.16666666666667L77.10892857142858,108.16666666666667L77.20214285714286,108.16666666666667L77.25392857142857,157.33333333333331L77.72,132.75L77.77178571428571,132.75L77.89607142857143,157.33333333333331L78.75571428571429,132.75L79.40821428571428,157.33333333333331L80.06071428571428,157.33333333333331L80.35071428571429,157.33333333333331L81.46928571428572,157.33333333333331L81.60392857142858,157.33333333333331L81.63499999999999,157.33333333333331L82.40142857142857,132.75L82.66035714285714,157.33333333333331L82.82607142857142,157.33333333333331L82.88821428571428,157.33333333333331L83.32321428571429,83.58333333333333L83.66499999999999,132.75L83.67535714285714,157.33333333333331L84.00678571428573,157.33333333333331L84.0275,132.75L84.28642857142857,108.16666666666667L84.30714285714285,157.33333333333331L84.32785714285714,132.75L84.59714285714286,157.33333333333331L85.1875,157.33333333333331L85.37392857142856,157.33333333333331L86.31642857142857,108.16666666666667L86.67892857142857,108.16666666666667L87.06214285714286,132.75L87.24857142857144,157.33333333333331L87.44535714285715,157.33333333333331L87.61107142857142,132.75L87.75607142857143,157.33333333333331L87.94250000000001,157.33333333333331L87.97357142857143,157.33333333333331L88.3567857142857,157.33333333333331L88.56392857142856,157.33333333333331L88.69857142857144,157.33333333333331L88.75035714285714,157.33333333333331L89.01964285714286,132.75L89.22678571428571,59.00000000000001L89.8275,157.33333333333331L90.31428571428572,132.75L90.41785714285714,157.33333333333331L90.45928571428571,157.33333333333331L90.625,132.75L90.73892857142857,132.75L91.36035714285715,157.33333333333331L91.57785714285714,132.75L91.66071428571428,157.33333333333331L91.75392857142857,157.33333333333331L91.91964285714285,132.75L92.48928571428571,157.33333333333331L92.56178571428572,132.75L92.95535714285715,157.33333333333331L93.12107142857143,157.33333333333331L93.19357142857142,157.33333333333331L93.40071428571429,157.33333333333331L93.67,132.75L94.42607142857143,157.33333333333331L94.45714285714287,157.33333333333331L94.5192857142857,157.33333333333331L95.0475,157.33333333333331L95.07857142857142,132.75L95.54464285714286,157.33333333333331L95.83464285714285,157.33333333333331L96.05214285714287,132.75L96.4042857142857,157.33333333333331L96.67357142857142,157.33333333333331L96.715,157.33333333333331L96.87035714285715,157.33333333333331L96.92214285714286,157.33333333333331L97.01535714285714,157.33333333333331L97.20178571428572,157.33333333333331L97.60571428571428,157.33333333333331L97.73,157.33333333333331L98.02000000000001,157.33333333333331L98.06142857142856,132.75L98.20642857142857,132.75L98.45500000000001,157.33333333333331L98.5792857142857,132.75L98.66214285714285,132.75L98.72428571428571,132.75L98.83821428571429,157.33333333333331L98.92107142857142,157.33333333333331L98.94178571428571,157.33333333333331L99.35607142857143,157.33333333333331L99.47000000000001,157.33333333333331L99.50107142857142,157.33333333333331L99.82214285714285,157.33333333333331L100.74392857142858,157.33333333333331L101.0442857142857,157.33333333333331L101.09607142857142,157.33333333333331L101.44821428571429,157.33333333333331L101.7175,132.75L102.06964285714287,132.75L102.08,132.75L102.34928571428571,157.33333333333331L102.48392857142856,132.75L102.80499999999999,157.33333333333331L102.83607142857143,157.33333333333331L103.42642857142857,157.33333333333331L103.90285714285713,157.33333333333331L104.13071428571429,108.16666666666667L104.37928571428571,157.33333333333331L104.5657142857143,157.33333333333331L104.835,157.33333333333331L105.06285714285714,157.33333333333331L105.27,157.33333333333331L105.56,157.33333333333331L105.80857142857144,157.33333333333331L106.2125,157.33333333333331L106.44035714285715,132.75L106.58535714285715,157.33333333333331L107.18607142857142,157.33333333333331L107.33107142857143,157.33333333333331L107.47607142857143,157.33333333333331L107.82821428571428,157.33333333333331L107.88,132.75L108.65678571428572,157.33333333333331L108.79142857142858,132.75L108.96749999999999,132.75L109.06071428571428,157.33333333333331L109.24714285714286,157.33333333333331L109.30928571428572,157.33333333333331L109.40249999999999,132.75L109.84785714285714,157.33333333333331L109.97214285714286,157.33333333333331L109.99285714285715,157.33333333333331L110.06535714285715,157.33333333333331L110.4382142857143,157.33333333333331L110.82142857142857,157.33333333333331L111.00785714285715,157.33333333333331L111.36,157.33333333333331L111.38071428571428,157.33333333333331L111.73285714285714,157.33333333333331L111.84678571428572,132.75L112.19892857142857,157.33333333333331L112.53035714285714,157.33333333333331L112.58214285714287,157.33333333333331L112.65464285714286,157.33333333333331L112.76857142857142,108.16666666666667L113.825,157.33333333333331L114.43607142857144,157.33333333333331L114.5292857142857,132.75L114.65357142857142,157.33333333333331L115.14035714285714,157.33333333333331L115.18178571428572,132.75L115.50285714285715,132.75L115.9275,157.33333333333331L116.26928571428572,108.16666666666667L116.9425,157.33333333333331L117.06678571428571,157.33333333333331L117.0875,157.33333333333331L117.16000000000001,157.33333333333331L117.70892857142857,157.33333333333331L117.71928571428572,132.75L117.78142857142856,157.33333333333331L117.83321428571428,157.33333333333331L117.93678571428572,157.33333333333331L118.65142857142857,157.33333333333331L118.81714285714285,157.33333333333331L118.98285714285716,157.33333333333331L118.99321428571429,157.33333333333331L119.5007142857143,157.33333333333331L119.59392857142856,157.33333333333331L119.68714285714286,108.16666666666667L120.15321428571428,132.75L120.21535714285714,157.33333333333331L120.87821428571428,157.33333333333331L120.88857142857144,157.33333333333331L120.91964285714286,157.33333333333331L121.0957142857143,157.33333333333331L121.30285714285714,157.33333333333331L121.57214285714285,157.33333333333331L121.7275,157.33333333333331L121.73785714285714,157.33333333333331L121.92428571428572,157.33333333333331L122.08999999999999,157.33333333333331L122.34892857142857,157.33333333333331L122.46285714285713,157.33333333333331L122.59750000000001,157.33333333333331L122.90821428571428,157.33333333333331L122.9807142857143,157.33333333333331L123.18785714285714,157.33333333333331L123.41571428571427,157.33333333333331L123.42607142857143,132.75L123.74714285714286,157.33333333333331L123.76785714285714,132.75L123.87142857142858,157.33333333333331L124.06821428571429,157.33333333333331L124.15107142857143,157.33333333333331L124.21321428571429,157.33333333333331L125.21785714285714,157.33333333333331L125.53892857142857,157.33333333333331L125.59071428571428,157.33333333333331L125.715,157.33333333333331L126.24321428571429,132.75L126.26392857142856,157.33333333333331L126.44,157.33333333333331L126.5125,157.33333333333331L127.07178571428571,132.75L127.18571428571428,157.33333333333331L127.35142857142858,157.33333333333331L127.86928571428572,157.33333333333331L128.37678571428572,157.33333333333331L128.89464285714286,157.33333333333331L128.9567857142857,132.75L128.96714285714287,132.75L129.02928571428572,157.33333333333331L129.6507142857143,132.75L130.09607142857143,157.33333333333331L130.22035714285713,157.33333333333331L130.645,157.33333333333331L130.84178571428572,157.33333333333331L130.94535714285715,157.33333333333331L130.96607142857144,157.33333333333331L131.71178571428572,132.75L131.78428571428572,157.33333333333331L131.83607142857144,157.33333333333331L132.00178571428572,157.33333333333331L132.0742857142857,157.33333333333331L132.20892857142857,132.75L132.27107142857145,157.33333333333331L132.66464285714287,157.33333333333331L133.00642857142856,157.33333333333331L133.6175,157.33333333333331L134.3942857142857,157.33333333333331L134.87071428571429,157.33333333333331L134.93285714285716,157.33333333333331L135.0157142857143,157.33333333333331L135.20214285714286,157.33333333333331L136.02035714285714,157.33333333333331L136.40357142857144,157.33333333333331L136.9007142857143,157.33333333333331L136.97321428571428,157.33333333333331L136.98357142857142,157.33333333333331L137.10785714285714,157.33333333333331L137.2942857142857,157.33333333333331L137.69821428571427,157.33333333333331L138.07107142857143,157.33333333333331L138.72357142857143,157.33333333333331L138.87892857142856,157.33333333333331L139.23107142857143,132.75L139.30357142857144,157.33333333333331L139.38642857142858,157.33333333333331L139.43821428571428,157.33333333333331L139.8525,157.33333333333331L140.09071428571428,157.33333333333331L140.40142857142857,157.33333333333331L140.54642857142858,157.33333333333331L140.62928571428571,157.33333333333331L140.97107142857143,157.33333333333331L141.85142857142858,157.33333333333331L142.0275,157.33333333333331L142.26571428571427,157.33333333333331L142.41071428571428,157.33333333333331L142.78357142857143,157.33333333333331L143.10464285714286,157.33333333333331L143.30142857142857,157.33333333333331L143.4567857142857,157.33333333333331L143.77785714285713,157.33333333333331L144.38892857142858,157.33333333333331L144.68928571428572,132.75L144.7617857142857,132.75L144.9482142857143,132.75L145.27964285714287,157.33333333333331L145.59035714285713,157.33333333333331L145.6525,157.33333333333331L145.70428571428573,157.33333333333331L145.78714285714284,157.33333333333331L146.39821428571426,157.33333333333331L146.8125,157.33333333333331L146.85392857142855,157.33333333333331L147.46499999999997,157.33333333333331L147.54785714285714,157.33333333333331L148.12785714285715,157.33333333333331L148.14857142857144,157.33333333333331L148.19,157.33333333333331L148.28321428571428,132.75L148.5732142857143,157.33333333333331L148.66642857142858,157.33333333333331L148.71821428571428,157.33333333333331L148.7907142857143,157.33333333333331L149.36035714285714,157.33333333333331L149.3707142857143,157.33333333333331L149.38107142857143,157.33333333333331L149.5260714285714,157.33333333333331L149.93,157.33333333333331L149.9507142857143,157.33333333333331L149.97142857142856,157.33333333333331L150.73785714285714,157.33333333333331L151.22464285714287,157.33333333333331L151.6492857142857,157.33333333333331L151.7632142857143,157.33333333333331L152.0325,157.33333333333331L152.52964285714285,157.33333333333331L153.1925,157.33333333333331L153.7725,157.33333333333331L153.88642857142858,157.33333333333331L154.77714285714285,157.33333333333331L155.06714285714284,157.33333333333331L155.16035714285715,157.33333333333331L155.32607142857142,157.33333333333331L155.46071428571426,157.33333333333331L155.54357142857143,157.33333333333331L155.6057142857143,157.33333333333331L155.74035714285714,157.33333333333331L155.84392857142856,157.33333333333331L155.85428571428574,157.33333333333331L156.31,157.33333333333331L157.30428571428573,157.33333333333331L157.40785714285715,157.33333333333331L157.7082142857143,157.33333333333331L157.78071428571428,157.33333333333331L157.87392857142856,157.33333333333331L157.94642857142856,157.33333333333331L158.4125,157.33333333333331L158.5057142857143,157.33333333333331L159.37571428571428,157.33333333333331L160.06964285714284,157.33333333333331L160.45285714285714,157.33333333333331L160.76357142857142,157.33333333333331L160.85678571428573,157.33333333333331L161.05357142857144,157.33333333333331L161.13642857142855,157.33333333333331L161.44714285714286,157.33333333333331L161.48857142857142,157.33333333333331L162.05821428571429,157.33333333333331L162.19285714285715,157.33333333333331L162.62785714285715,157.33333333333331L162.77285714285713,157.33333333333331L163.21821428571428,157.33333333333331L163.44607142857143,157.33333333333331L163.66357142857143,157.33333333333331L164.15035714285716,157.33333333333331L164.33678571428572,157.33333333333331L164.575,157.33333333333331L164.84428571428572,157.33333333333331L165.41392857142858,157.33333333333331L165.77642857142857,157.33333333333331L166.07678571428573,157.33333333333331L166.19071428571428,157.33333333333331L166.57392857142858,157.33333333333331L166.7707142857143,157.33333333333331L166.9157142857143,157.33333333333331L167.02964285714285,157.33333333333331L167.09178571428572,157.33333333333331L167.1642857142857,132.75L167.54749999999999,132.75L167.72357142857143,157.33333333333331L167.84785714285712,157.33333333333331L167.87892857142856,157.33333333333331L167.96178571428572,157.33333333333331L168.02392857142857,157.33333333333331L168.45892857142857,157.33333333333331L169.24607142857144,157.33333333333331L169.32892857142855,132.75L169.38071428571428,132.75L169.505,157.33333333333331L169.51535714285714,157.33333333333331L169.5982142857143,157.33333333333331L169.85714285714286,157.33333333333331L169.90892857142856,157.33333333333331L170.1367857142857,157.33333333333331L170.14714285714285,157.33333333333331L171.25535714285715,157.33333333333331L171.26571428571427,157.33333333333331L171.69035714285715,157.33333333333331L172.1667857142857,157.33333333333331L172.39464285714286,157.33333333333331L173.19214285714284,157.33333333333331L173.33714285714288,157.33333333333331L173.58571428571426,157.33333333333331L173.84464285714284,157.33333333333331L174.10357142857143,157.33333333333331L174.1967857142857,157.33333333333331L174.4142857142857,157.33333333333331L174.5282142857143,157.33333333333331L174.66285714285715,157.33333333333331L174.7042857142857,157.33333333333331L175.02535714285713,157.33333333333331L175.07714285714286,157.33333333333331L175.13928571428573,157.33333333333331L175.29464285714283,157.33333333333331L175.45,157.33333333333331L175.595,157.33333333333331L175.89535714285714,157.33333333333331L176.2682142857143,157.33333333333331L176.75500000000002,157.33333333333331L176.79642857142858,157.33333333333331L177.08642857142857,157.33333333333331L177.2107142857143,157.33333333333331L177.31428571428572,157.33333333333331L177.50071428571428,157.33333333333331L177.89428571428573,157.33333333333331L177.9875,157.33333333333331L178.1325,157.33333333333331L179.365,157.33333333333331L179.53071428571428,157.33333333333331L179.6757142857143,157.33333333333331L179.8207142857143,157.33333333333331L179.91392857142858,157.33333333333331L180.41107142857143,157.33333333333331L180.63892857142858,157.33333333333331L180.85642857142858,157.33333333333331L181.14642857142857,157.33333333333331L181.16714285714284,157.33333333333331L182.3892857142857,157.33333333333331L182.6792857142857,132.75L183.32142857142856,157.33333333333331L183.44571428571427,157.33333333333331L183.82892857142858,157.33333333333331L184.18107142857144,157.33333333333331L184.28464285714284,157.33333333333331L184.3675,157.33333333333331L184.50214285714287,157.33333333333331L184.56428571428572,157.33333333333331L184.6782142857143,157.33333333333331L185.1132142857143,157.33333333333331L185.13392857142856,157.33333333333331L185.61035714285714,157.33333333333331L185.6207142857143,157.33333333333331L186.035,157.33333333333331L186.6564285714286,157.33333333333331L187.01892857142857,157.33333333333331L187.02928571428572,157.33333333333331L187.66107142857143,132.75L187.83714285714285,157.33333333333331L188.6657142857143,157.33333333333331L188.6864285714286,157.33333333333331L189.19392857142856,157.33333333333331L189.35964285714283,157.33333333333331L189.37,157.33333333333331L189.39071428571427,157.33333333333331L190.1157142857143,157.33333333333331L190.84071428571428,157.33333333333331L191.34821428571428,157.33333333333331L191.36892857142857,157.33333333333331L191.4725,157.33333333333331L191.83499999999998,132.75L191.9282142857143,157.33333333333331L192.02142857142857,157.33333333333331L192.67392857142858,157.33333333333331L192.71535714285716,157.33333333333331L193.31607142857143,157.33333333333331L193.55428571428573,157.33333333333331L193.7407142857143,157.33333333333331L194.05142857142857,157.33333333333331L194.24821428571428,157.33333333333331L194.91107142857143,157.33333333333331L194.95250000000001,157.33333333333331L195.48071428571427,157.33333333333331L195.90535714285713,157.33333333333331L195.9675,157.33333333333331L195.9882142857143,157.33333333333331L196.05035714285714,157.33333333333331L196.765,157.33333333333331L196.77535714285713,157.33333333333331L196.94107142857143,157.33333333333331L197.06535714285712,157.33333333333331L197.18964285714284,157.33333333333331L197.8317857142857,157.33333333333331L197.85250000000002,157.33333333333331L198.18392857142857,157.33333333333331L198.1942857142857,157.33333333333331L198.215,157.33333333333331L198.37035714285716,157.33333333333331L199.54071428571427,157.33333333333331L199.8410714285714,157.33333333333331L199.92392857142858,157.33333333333331L199.9342857142857,157.33333333333331L200.79392857142858,157.33333333333331L200.86642857142857,157.33333333333331L201.85035714285715,157.33333333333331L202.0057142857143,157.33333333333331L202.01607142857142,157.33333333333331L202.17142857142858,157.33333333333331L202.18178571428572,157.33333333333331L202.40964285714284,157.33333333333331L202.67892857142857,157.33333333333331L203.0207142857143,157.33333333333331L203.34178571428572,157.33333333333331L203.8907142857143,157.33333333333331L204.3982142857143,157.33333333333331L204.43964285714284,157.33333333333331L204.50178571428572,157.33333333333331L204.58464285714288,157.33333333333331L204.62607142857144,157.33333333333331L204.99892857142856,157.33333333333331L205.03,157.33333333333331L205.14392857142857,157.33333333333331L205.32,157.33333333333331L205.4442857142857,157.33333333333331L205.69285714285715,157.33333333333331L205.89999999999998,157.33333333333331L206.17964285714285,157.33333333333331L206.25214285714284,157.33333333333331L206.48,157.33333333333331L206.6975,157.33333333333331L206.72857142857143,157.33333333333331L207.19464285714284,157.33333333333331L208.67571428571426,157.33333333333331L209.21428571428572,157.33333333333331L209.25571428571428,157.33333333333331L209.31785714285712,157.33333333333331L209.39035714285717,157.33333333333331L209.4525,157.33333333333331L209.60785714285714,157.33333333333331L209.69071428571428,157.33333333333331L210.00142857142856,157.33333333333331L210.0117857142857,157.33333333333331L210.13607142857143,157.33333333333331L210.34321428571428,157.33333333333331L210.41571428571427,157.33333333333331L210.6642857142857,157.33333333333331L210.89214285714286,157.33333333333331L211.09928571428574,157.33333333333331L211.2235714285714,157.33333333333331L211.88642857142858,157.33333333333331L212.24892857142856,157.33333333333331L212.25928571428574,157.33333333333331L212.38357142857143,157.33333333333331L212.43535714285716,157.33333333333331L212.77714285714288,157.33333333333331L213.67821428571426,157.33333333333331L213.74035714285714,157.33333333333331L213.77142857142857,157.33333333333331L213.97857142857143,157.33333333333331L214.05107142857142,157.33333333333331L214.37214285714285,157.33333333333331L215.11785714285713,157.33333333333331L215.18,157.33333333333331L215.19035714285712,157.33333333333331L215.45964285714285,157.33333333333331L215.55285714285716,157.33333333333331L215.81178571428572,157.33333333333331L216.1225,157.33333333333331L216.57821428571427,157.33333333333331L216.8060714285714,132.75L217.19964285714286,157.33333333333331L217.3032142857143,157.33333333333331L217.34464285714284,157.33333333333331L217.35500000000002,157.33333333333331L218.33892857142857,157.33333333333331L218.35964285714286,157.33333333333331L218.41142857142856,157.33333333333331L219.03285714285715,157.33333333333331L219.05357142857142,157.33333333333331L219.47821428571427,157.33333333333331L219.9960714285714,157.33333333333331L220.07892857142858,157.33333333333331L220.33785714285713,157.33333333333331L220.52428571428572,157.33333333333331L220.80392857142857,157.33333333333331L220.99035714285714,157.33333333333331L221.125,157.33333333333331L221.3632142857143,157.33333333333331L222.5232142857143,132.75L222.56464285714284,157.33333333333331L222.73035714285714,157.33333333333331L223.02035714285714,157.33333333333331L223.43464285714285,157.33333333333331L224.0767857142857,157.33333333333331L224.09750000000003,157.33333333333331L224.13892857142858,157.33333333333331L224.20107142857142,157.33333333333331L224.78107142857144,157.33333333333331L224.9467857142857,157.33333333333331L225.0917857142857,157.33333333333331L225.44392857142856,157.33333333333331L225.60964285714283,157.33333333333331L226.33464285714285,157.33333333333331L226.345,157.33333333333331L226.38642857142858,157.33333333333331L226.52107142857145,157.33333333333331L226.67642857142857,157.33333333333331L226.73857142857142,157.33333333333331L227.30821428571429,157.33333333333331L227.44285714285712,157.33333333333331L227.69142857142856,157.33333333333331L227.9192857142857,157.33333333333331L229.7525,157.33333333333331L229.97,157.33333333333331L230.28071428571428,157.33333333333331L230.61214285714289,157.33333333333331L230.70535714285714,157.33333333333331L231.0885714285714,157.33333333333331L231.5442857142857,157.33333333333331L231.6375,157.33333333333331L231.84464285714287,157.33333333333331L232.0725,157.33333333333331L232.1657142857143,157.33333333333331L232.31071428571428,157.33333333333331L232.51785714285717,157.33333333333331L232.54892857142858,157.33333333333331L232.93214285714288,157.33333333333331L233.22214285714284,157.33333333333331L233.31535714285712,157.33333333333331L233.4085714285714,157.33333333333331L233.42928571428573,157.33333333333331L234.28892857142858,157.33333333333331L234.40285714285713,157.33333333333331L234.6825,157.33333333333331L234.9517857142857,157.33333333333331L235.2107142857143,157.33333333333331L235.2417857142857,157.33333333333331L235.41785714285714,157.33333333333331L236.33964285714285,157.33333333333331L236.3810714285714,157.33333333333331L236.53642857142856,157.33333333333331L236.55714285714285,157.33333333333331L236.60892857142858,157.33333333333331L236.67107142857142,157.33333333333331L236.8057142857143,157.33333333333331L236.88857142857142,157.33333333333331L237.26142857142858,157.33333333333331L237.42714285714285,157.33333333333331L238.17285714285714,157.33333333333331L238.22464285714287,157.33333333333331L238.47321428571428,157.33333333333331L238.68035714285716,157.33333333333331L238.7425,157.33333333333331L239.0532142857143,157.33333333333331L239.30178571428573,157.33333333333331L239.4157142857143,157.33333333333331L239.65392857142857,157.33333333333331L239.77821428571428,157.33333333333331L240.79321428571427,157.33333333333331L240.92785714285714,157.33333333333331L241.2282142857143,157.33333333333331L241.34214285714285,157.33333333333331L241.58035714285717,157.33333333333331L241.7046428571429,157.33333333333331L241.81857142857143,157.33333333333331L241.95321428571427,157.33333333333331L242.91642857142858,157.33333333333331L242.93714285714287,157.33333333333331L243.03035714285716,157.33333333333331L243.0717857142857,157.33333333333331L243.08214285714286,157.33333333333331L243.15464285714285,157.33333333333331L243.29964285714286,157.33333333333331L243.32035714285715,157.33333333333331L243.37214285714285,157.33333333333331L243.84857142857143,157.33333333333331L243.91071428571428,157.33333333333331L244.31464285714284,157.33333333333331L244.34571428571428,157.33333333333331L246.74857142857144,157.33333333333331L246.99714285714288,157.33333333333331L247.26642857142858,157.33333333333331L247.2767857142857,157.33333333333331L247.50464285714284,157.33333333333331L247.56678571428571,157.33333333333331L247.6082142857143,157.33333333333331L247.77392857142857,157.33333333333331L248.01214285714286,157.33333333333331L248.46785714285713,157.33333333333331L248.92357142857142,157.33333333333331L249.02714285714288,157.33333333333331L249.04785714285714,157.33333333333331L249.2757142857143,157.33333333333331L250.01107142857143,157.33333333333331L250.03178571428572,157.33333333333331L250.41500000000002,157.33333333333331L250.91214285714287,157.33333333333331L251.12964285714287,157.33333333333331L251.5025,157.33333333333331L251.60607142857145,157.33333333333331L251.7925,157.33333333333331L252.35178571428574,157.33333333333331L252.92142857142855,157.33333333333331L253.3667857142857,157.33333333333331L253.6775,157.33333333333331L253.90535714285716,157.33333333333331L253.92607142857142,157.33333333333331L254.17464285714286,157.33333333333331L254.18499999999997,157.33333333333331L255.28285714285715,157.33333333333331L255.2932142857143,157.33333333333331L255.55214285714285,157.33333333333331L255.91464285714287,157.33333333333331L256.27714285714285,157.33333333333331L256.3392857142857,157.33333333333331L256.3807142857143,157.33333333333331L257.00214285714287,157.33333333333331L257.05392857142857,157.33333333333331L257.18857142857144,157.33333333333331L257.4267857142857,157.33333333333331L257.7892857142857,157.33333333333331L258.3382142857143,157.33333333333331L258.7525,157.33333333333331L259.1667857142857,157.33333333333331L259.1978571428571,157.33333333333331L259.5396428571429,157.33333333333331L259.76750000000004,157.33333333333331L259.87107142857144,157.33333333333331L260.1196428571429,157.33333333333331L260.2025,157.33333333333331L260.36821428571426,157.33333333333331L260.66857142857145,157.33333333333331L261.6317857142857,157.33333333333331L262.3567857142857,157.33333333333331L262.55357142857144,157.33333333333331L262.57428571428574,157.33333333333331L262.94714285714286,157.33333333333331L263.13357142857143,157.33333333333331L263.16464285714284,157.33333333333331L263.4132142857143,157.33333333333331L263.88964285714286,157.33333333333331L264.37642857142856,157.33333333333331L264.6975,157.33333333333331L264.915,157.33333333333331L265.4535714285714,157.33333333333331L266.0439285714286,157.33333333333331L266.3132142857143,157.33333333333331L267.07964285714286,157.33333333333331L267.19357142857143,157.33333333333331L267.22464285714284,157.33333333333331L267.53535714285715,157.33333333333331L267.59749999999997,157.33333333333331L268.06357142857144,157.33333333333331L269.0889285714286,157.33333333333331L269.7207142857143,157.33333333333331L269.9692857142857,157.33333333333331L270.0314285714286,157.33333333333331L270.24892857142856,157.33333333333331L270.4975,157.33333333333331L270.72535714285715,157.33333333333331L270.86,157.33333333333331L271.3157142857143,157.33333333333331L271.66785714285714,157.33333333333331L271.7092857142857,157.33333333333331L271.8853571428571,157.33333333333331L271.9060714285714,157.33333333333331L273.0867857142857,157.33333333333331L273.2939285714286,157.33333333333331L273.3975,157.33333333333331L273.6564285714286,157.33333333333331L274.1017857142857,157.33333333333331L274.24678571428575,157.33333333333331L274.39178571428573,157.33333333333331L274.6610714285714,157.33333333333331L274.7542857142857,157.33333333333331L275.24107142857144,157.33333333333331L275.2825,157.33333333333331L275.3860714285714,157.33333333333331L275.5,157.33333333333331L275.5414285714286,132.75L275.5725,157.33333333333331L275.65535714285716,157.33333333333331L275.87285714285713,157.33333333333331L275.9453571428571,157.33333333333331L276.16285714285715,157.33333333333331L276.52535714285716,157.33333333333331L276.7325,157.33333333333331L276.75321428571425,157.33333333333331L276.9292857142857,157.33333333333331L277.0742857142857,157.33333333333331L277.7164285714286,157.33333333333331L277.7371428571429,157.33333333333331L277.88214285714287,157.33333333333331L278.3275,157.33333333333331L278.43107142857144,157.33333333333331L278.86607142857144,157.33333333333331L278.96964285714284,157.33333333333331L279.1042857142857,157.33333333333331L279.5185714285714,157.33333333333331L279.74642857142857,157.33333333333331L279.995,157.33333333333331L280.5439285714286,157.33333333333331" style="fill: none;" fill="none"></path></g></g></g></g></g></g><g transform="translate(40, 177)" clip-path="url(#clip_1)"><clipPath id="clip_1"><rect width="290" height="23"></rect></clipPath><g><g><line x1="0" y1="0" x2="0" y2="5" style="visibility: inherit;" fill="rgb(0, 0, 0)" stroke="rgb(204, 204, 204)" stroke-width="1px"></line><line x1="20.71428571428571" y1="0" x2="20.71428571428571" y2="5" style="visibility: inherit;" fill="rgb(0, 0, 0)" stroke="rgb(204, 204, 204)" stroke-width="1px"></line><line x1="41.42857142857142" y1="0" x2="41.42857142857142" y2="5" style="visibility: inherit;" fill="rgb(0, 0, 0)" stroke="rgb(204, 204, 204)" stroke-width="1px"></line><line x1="62.14285714285714" y1="0" x2="62.14285714285714" y2="5" style="visibility: inherit;" fill="rgb(0, 0, 0)" stroke="rgb(204, 204, 204)" stroke-width="1px"></line><line x1="82.85714285714285" y1="0" x2="82.85714285714285" y2="5" style="visibility: inherit;" fill="rgb(0, 0, 0)" stroke="rgb(204, 204, 204)" stroke-width="1px"></line><line x1="103.57142857142857" y1="0" x2="103.57142857142857" y2="5" style="visibility: inherit;" fill="rgb(0, 0, 0)" stroke="rgb(204, 204, 204)" stroke-width="1px"></line><line x1="124.28571428571428" y1="0" x2="124.28571428571428" y2="5" style="visibility: inherit;" fill="rgb(0, 0, 0)" stroke="rgb(204, 204, 204)" stroke-width="1px"></line><line x1="145" y1="0" x2="145" y2="5" style="visibility: inherit;" fill="rgb(0, 0, 0)" stroke="rgb(204, 204, 204)" stroke-width="1px"></line><line x1="165.7142857142857" y1="0" x2="165.7142857142857" y2="5" style="visibility: inherit;" fill="rgb(0, 0, 0)" stroke="rgb(204, 204, 204)" stroke-width="1px"></line><line x1="186.42857142857144" y1="0" x2="186.42857142857144" y2="5" style="visibility: inherit;" fill="rgb(0, 0, 0)" stroke="rgb(204, 204, 204)" stroke-width="1px"></line><line x1="207.14285714285714" y1="0" x2="207.14285714285714" y2="5" style="visibility: inherit;" fill="rgb(0, 0, 0)" stroke="rgb(204, 204, 204)" stroke-width="1px"></line><line x1="227.85714285714286" y1="0" x2="227.85714285714286" y2="5" style="visibility: inherit;" fill="rgb(0, 0, 0)" stroke="rgb(204, 204, 204)" stroke-width="1px"></line><line x1="248.57142857142856" y1="0" x2="248.57142857142856" y2="5" style="visibility: inherit;" fill="rgb(0, 0, 0)" stroke="rgb(204, 204, 204)" stroke-width="1px"></line><line x1="269.2857142857143" y1="0" x2="269.2857142857143" y2="5" style="visibility: inherit;" fill="rgb(0, 0, 0)" stroke="rgb(204, 204, 204)" stroke-width="1px"></line><line x1="290" y1="0" x2="290" y2="5" style="visibility: inherit;" fill="rgb(0, 0, 0)" stroke="rgb(204, 204, 204)" stroke-width="1px"></line></g><g transform="translate(0, 8)"><text x="0" y="0" dx="0em" dy="0.95em" style="text-anchor: middle; visibility: hidden; font-family: Roboto, sans-serif; font-size: 12px; font-weight: 200;" fill="rgb(255, 255, 255)" stroke="none" stroke-width="1px">-2k</text><text x="20.71428571428571" y="0" dx="0em" dy="0.95em" style="text-anchor: middle; visibility: inherit; font-family: Roboto, sans-serif; font-size: 12px; font-weight: 200;" fill="rgb(255, 255, 255)" stroke="none" stroke-width="1px">0</text><text x="41.42857142857142" y="0" dx="0em" dy="0.95em" style="text-anchor: middle; visibility: hidden; font-family: Roboto, sans-serif; font-size: 12px; font-weight: 200;" fill="rgb(255, 255, 255)" stroke="none" stroke-width="1px">2k</text><text x="62.14285714285714" y="0" dx="0em" dy="0.95em" style="text-anchor: middle; visibility: inherit; font-family: Roboto, sans-serif; font-size: 12px; font-weight: 200;" fill="rgb(255, 255, 255)" stroke="none" stroke-width="1px">4k</text><text x="82.85714285714285" y="0" dx="0em" dy="0.95em" style="text-anchor: middle; visibility: hidden; font-family: Roboto, sans-serif; font-size: 12px; font-weight: 200;" fill="rgb(255, 255, 255)" stroke="none" stroke-width="1px">6k</text><text x="103.57142857142857" y="0" dx="0em" dy="0.95em" style="text-anchor: middle; visibility: inherit; font-family: Roboto, sans-serif; font-size: 12px; font-weight: 200;" fill="rgb(255, 255, 255)" stroke="none" stroke-width="1px">8k</text><text x="124.28571428571428" y="0" dx="0em" dy="0.95em" style="text-anchor: middle; visibility: hidden; font-family: Roboto, sans-serif; font-size: 12px; font-weight: 200;" fill="rgb(255, 255, 255)" stroke="none" stroke-width="1px">10k</text><text x="145" y="0" dx="0em" dy="0.95em" style="text-anchor: middle; visibility: inherit; font-family: Roboto, sans-serif; font-size: 12px; font-weight: 200;" fill="rgb(255, 255, 255)" stroke="none" stroke-width="1px">12k</text><text x="165.7142857142857" y="0" dx="0em" dy="0.95em" style="text-anchor: middle; visibility: hidden; font-family: Roboto, sans-serif; font-size: 12px; font-weight: 200;" fill="rgb(255, 255, 255)" stroke="none" stroke-width="1px">14k</text><text x="186.42857142857144" y="0" dx="0em" dy="0.95em" style="text-anchor: middle; visibility: inherit; font-family: Roboto, sans-serif; font-size: 12px; font-weight: 200;" fill="rgb(255, 255, 255)" stroke="none" stroke-width="1px">16k</text><text x="207.14285714285714" y="0" dx="0em" dy="0.95em" style="text-anchor: middle; visibility: hidden; font-family: Roboto, sans-serif; font-size: 12px; font-weight: 200;" fill="rgb(255, 255, 255)" stroke="none" stroke-width="1px">18k</text><text x="227.85714285714286" y="0" dx="0em" dy="0.95em" style="text-anchor: middle; visibility: inherit; font-family: Roboto, sans-serif; font-size: 12px; font-weight: 200;" fill="rgb(255, 255, 255)" stroke="none" stroke-width="1px">20k</text><text x="248.57142857142856" y="0" dx="0em" dy="0.95em" style="text-anchor: middle; visibility: hidden; font-family: Roboto, sans-serif; font-size: 12px; font-weight: 200;" fill="rgb(255, 255, 255)" stroke="none" stroke-width="1px">22k</text><text x="269.2857142857143" y="0" dx="0em" dy="0.95em" style="text-anchor: middle; visibility: inherit; font-family: Roboto, sans-serif; font-size: 12px; font-weight: 200;" fill="rgb(255, 255, 255)" stroke="none" stroke-width="1px">24k</text><text x="290" y="0" dx="0em" dy="0.95em" style="text-anchor: middle; visibility: hidden; font-family: Roboto, sans-serif; font-size: 12px; font-weight: 200;" fill="rgb(255, 255, 255)" stroke="none" stroke-width="1px">26k</text></g><line x1="0" y1="0" x2="290" y2="0" fill="rgb(0, 0, 0)" stroke="rgb(204, 204, 204)" stroke-width="1px"></line></g></g></g></g></svg>